#!OML:ASF H:\LiuWeirdWalks\Patient Classification 1\Patient 1\Session 1\male.ASF
:FULLY-SPECIFIED
:DEGREES
665
root 1.16347 18.1331 2.61699 5.08154 7.87928 4.08426
lowerback 11.2692 -0.621046 4.16782
upperback 0.494355 0.26011 8.52039
thorax -5.86173 0.150727 6.68584
lowerneck -20.4524 0.34107 8.46188
upperneck 12.5519 1.7732 -21.4724
head 7.60485 -0.756566 -8.5846
rclavicle -3.81667e-014 5.40694e-014
rhumerus -19.4098 -34.1824 -13.0694
rradius 30.4444
rwrist -0.0141902
rhand -22.8281 -2.21156
rfingers 7.12502
rthumb 3.60908 -32.1608
lclavicle -3.81667e-014 5.40694e-014
lhumerus -18.2558 30.7236 25.2587
lradius 35.8202
lwrist 10.8943
lhand -20.3622 -1.69972
lfingers 7.12502
lthumb 5.99016 28.1956
rfemur -23.9487 -5.08187 11.0756
rtibia 30.9817
rfoot -5.92432 -17.1838
rtoes -4.0482
lfemur 3.09328 -2.73008 -18.3479
ltibia 31.1087
lfoot 0.955682 3.66438
ltoes -23.383
666
root 1.14278 18.1455 2.69942 5.07033 8.05607 4.16447
lowerback 11.3029 -0.618562 4.36979
upperback 0.468874 0.316636 8.81438
thorax -5.91599 0.179492 6.88857
lowerneck -20.453 0.340947 8.44439
upperneck 12.4868 1.85616 -21.9779
head 7.61298 -0.760264 -8.75961
rclavicle -2.06736e-014 1.55847e-013
rhumerus -19.5496 -34.1892 -13.1379
rradius 30.6166
rwrist -0.0720436
rhand -22.8928 -2.1846
rfingers 7.12502
rthumb 3.54658 -32.1348
lclavicle -2.06736e-014 1.55847e-013
lhumerus -18.0735 30.6505 25.2287
lradius 35.828
lwrist 10.8637
lhand -20.328 -1.88228
lfingers 7.12502
lthumb 6.02313 28.0121
rfemur -23.5599 -5.03947 11.0715
rtibia 30.9478
rfoot -6.02367 -17.3582
rtoes -3.65695
lfemur 2.81611 -2.74626 -18.2977
ltibia 31.8696
lfoot 1.61885 3.39189
ltoes -22.6428
667
root 1.12403 18.1572 2.78093 5.056 8.19956 4.26922
lowerback 11.3478 -0.606252 4.5687
upperback 0.44964 0.385461 9.08646
thorax -5.97115 0.214022 7.06784
lowerneck -20.4562 0.341309 8.43239
upperneck 12.4209 1.93274 -22.4561
head 7.62028 -0.763992 -8.92712
rclavicle -3.89618e-014 -2.22639e-014
rhumerus -19.7109 -34.2088 -13.2237
rradius 30.7794
rwrist -0.125055
rhand -22.9206 -2.12242
rfingers 7.12502
rthumb 3.5198 -32.0731
lclavicle -3.89618e-014 -2.22639e-014
lhumerus -17.8786 30.6167 25.2004
lradius 35.8421
lwrist 10.8093
lhand -20.3198 -2.02153
lfingers 7.12502
lthumb 6.03112 27.8726
rfemur -23.1771 -4.99462 11.0348
rtibia 30.9157
rfoot -6.14393 -17.5087
rtoes -3.30872
lfemur 2.54356 -2.71154 -18.2879
ltibia 32.6398
lfoot 2.26126 3.14974
ltoes -21.8243
668
root 1.10679 18.1684 2.86125 5.03982 8.29347 4.381
lowerback 11.4043 -0.586165 4.77148
upperback 0.430215 0.465381 9.33609
thorax -6.03413 0.253494 7.21928
lowerneck -20.4604 0.334792 8.40365
upperneck 12.3696 1.99578 -22.8726
head 7.62888 -0.770016 -9.07135
rclavicle 3.18055e-015 4.45278e-014
rhumerus -19.8803 -34.2055 -13.3542
rradius 30.9211
rwrist -0.189054
rhand -22.9355 -2.03531
rfingers 7.12502
rthumb 3.50541 -31.9862
lclavicle 3.18055e-015 4.45278e-014
lhumerus -17.7007 30.5806 25.1385
lradius 35.8748
lwrist 10.8079
lhand -20.3215 -2.17897
lfingers 7.12502
lthumb 6.02945 27.7152
rfemur -22.8134 -4.91618 10.9864
rtibia 30.8896
rfoot -6.28066 -17.6528
rtoes -2.99569
lfemur 2.27445 -2.62438 -18.304
ltibia 33.412
lfoot 2.89071 2.93758
ltoes -20.9697
669
root 1.09051 18.1794 2.94035 5.01841 8.34828 4.50103
lowerback 11.4678 -0.561469 4.97345
upperback 0.420287 0.549875 9.56147
thorax -6.09115 0.294632 7.3438
lowerneck -20.4608 0.332652 8.39136
upperneck 12.328 2.05527 -23.2523
head 7.63866 -0.773598 -9.20616
rclavicle 2.38542e-015 -1.90833e-014
rhumerus -20.0413 -34.2169 -13.542
rradius 31.0228
rwrist -0.251712
rhand -22.937 -1.91505
rfingers 7.12502
rthumb 3.50391 -31.866
lclavicle 2.38542e-015 -1.90833e-014
lhumerus -17.525 30.5777 25.0447
lradius 35.9274
lwrist 10.8341
lhand -20.3325 -2.30016
lfingers 7.12502
lthumb 6.01883 27.5944
rfemur -22.4638 -4.79972 10.9263
rtibia 30.8734
rfoot -6.42887 -17.8061
rtoes -2.73835
lfemur 2.01278 -2.48266 -18.3385
ltibia 34.1794
lfoot 3.48437 2.73094
ltoes -20.0171
670
root 1.07467 18.1898 3.01829 4.99234 8.35465 4.64123
lowerback 11.552 -0.52998 5.15666
upperback 0.412456 0.641362 9.75648
thorax -6.15811 0.339067 7.44497
lowerneck -20.4563 0.337837 8.39903
upperneck 12.2787 2.11068 -23.5918
head 7.6435 -0.773784 -9.32964
rclavicle -2.38542e-014 -2.54444e-014
rhumerus -20.1935 -34.2556 -13.7824
rradius 31.0619
rwrist -0.247988
rhand -22.9156 -1.78467
rfingers 7.12502
rthumb 3.52456 -31.7353
lclavicle -2.38542e-014 -2.54444e-014
lhumerus -17.373 30.5648 24.9053
lradius 36.008
lwrist 10.8968
lhand -20.3465 -2.39459
lfingers 7.12502
lthumb 6.00525 27.5003
rfemur -22.1325 -4.63511 10.8436
rtibia 30.8722
rfoot -6.5898 -17.9724
rtoes -2.52184
lfemur 1.764 -2.28283 -18.4035
ltibia 34.9338
lfoot 4.05095 2.52842
ltoes -19.0152
671
root 1.05906 18.1999 3.09494 4.97467 8.32261 4.80938
lowerback 11.632 -0.496358 5.30727
upperback 0.406974 0.72873 9.92055
thorax -6.21963 0.381637 7.53091
lowerneck -20.4284 0.344329 8.41036
upperneck 12.224 2.1571 -23.8787
head 7.63935 -0.771819 -9.43375
rclavicle 1.59028e-014 4.13472e-014
rhumerus -20.3177 -34.3204 -14.0861
rradius 31.0378
rwrist -0.20957
rhand -22.875 -1.68428
rfingers 7.12502
rthumb 3.56377 -31.6342
lclavicle 1.59028e-014 4.13472e-014
lhumerus -17.234 30.5507 24.7238
lradius 36.1097
lwrist 11.0079
lhand -20.4198 -2.36153
lfingers 7.12502
lthumb 5.93457 27.5354
rfemur -21.8301 -4.435 10.7321
rtibia 30.889
rfoot -6.76905 -18.1547
rtoes -2.35014
lfemur 1.51368 -2.02873 -18.5019
ltibia 35.6694
lfoot 4.58489 2.3233
ltoes -17.9761
672
root 1.04388 18.2093 3.17067 4.95535 8.25829 5.00113
lowerback 11.7132 -0.464064 5.44008
upperback 0.404562 0.809447 10.0501
thorax -6.27736 0.420563 7.58945
lowerneck -20.3748 0.35576 8.43365
upperneck 12.1762 2.2005 -24.1181
head 7.63073 -0.765233 -9.52181
rclavicle 2.70347e-014 1.01778e-013
rhumerus -20.4354 -34.3797 -14.4469
rradius 30.9738
rwrist -0.139648
rhand -22.8174 -1.63261
rfingers 7.12502
rthumb 3.61942 -31.5816
lclavicle 2.70347e-014 1.01778e-013
lhumerus -17.117 30.56 24.4887
lradius 36.2063
lwrist 11.0741
lhand -20.4599 -2.38204
lfingers 7.12502
lthumb 5.89585 27.5159
rfemur -21.5421 -4.21249 10.5969
rtibia 30.9255
rfoot -6.96788 -18.3434
rtoes -2.21575
lfemur 1.27836 -1.7345 -18.6308
ltibia 36.382
lfoot 5.06822 2.13832
ltoes -17.0726
673
root 1.02815 18.2182 3.24552 4.93959 8.15836 5.19226
lowerback 11.7965 -0.427935 5.55632
upperback 0.404016 0.891678 10.1586
thorax -6.33419 0.460121 7.63347
lowerneck -20.3281 0.359014 8.43085
upperneck 12.1683 2.23546 -24.2909
head 7.63224 -0.760428 -9.58281
rclavicle 5.56597e-015 3.81667e-014
rhumerus -20.5408 -34.4472 -14.8559
rradius 30.8717
rwrist -0.0755215
rhand -22.7509 -1.62512
rfingers 7.12502
rthumb 3.68364 -31.573
lclavicle 5.56597e-015 3.81667e-014
lhumerus -17.0245 30.5722 24.2203
lradius 36.3181
lwrist 11.138
lhand -20.5098 -2.37366
lfingers 7.12502
lthumb 5.84766 27.5256
rfemur -21.2774 -3.94653 10.4686
rtibia 30.9775
rfoot -7.17993 -18.5563
rtoes -2.11361
lfemur 1.04732 -1.39376 -18.7559
ltibia 37.0719
lfoot 5.49204 1.97491
ltoes -16.2017
674
root 1.01269 18.2264 3.31999 4.93047 8.02171 5.3855
lowerback 11.8725 -0.386556 5.6698
upperback 0.40224 0.978011 10.2426
thorax -6.38797 0.501061 7.65045
lowerneck -20.2851 0.365859 8.41852
upperneck 12.1844 2.27638 -24.4265
head 7.64198 -0.75131 -9.62851
rclavicle 9.54166e-015 -9.54166e-015
rhumerus -20.6596 -34.4608 -15.2956
rradius 30.7645
rwrist -0.0507248
rhand -22.6768 -1.65778
rfingers 7.12502
rthumb 3.75518 -31.6044
lclavicle 9.54166e-015 -9.54166e-015
lhumerus -16.9576 30.557 23.9284
lradius 36.4473
lwrist 11.213
lhand -20.5612 -2.37072
lfingers 7.12502
lthumb 5.79802 27.53
rfemur -21.0346 -3.65887 10.342
rtibia 31.0408
rfoot -7.39852 -18.7687
rtoes -2.04742
lfemur 0.821944 -1.01774 -18.8869
ltibia 37.7407
lfoot 5.8238 1.86186
ltoes -15.4164
675
root 0.997651 18.2336 3.39454 4.92568 7.85823 5.57257
lowerback 11.9271 -0.341533 5.78484
upperback 0.410155 1.06422 10.3094
thorax -6.41855 0.541242 7.64586
lowerneck -20.2657 0.366818 8.37662
upperneck 12.2373 2.31708 -24.522
head 7.66629 -0.74348 -9.65617
rclavicle -3.18055e-015 3.18055e-014
rhumerus -20.767 -34.4861 -15.7569
rradius 30.6372
rwrist -0.0508746
rhand -22.58 -1.70646
rfingers 7.12502
rthumb 3.8487 -31.6514
lclavicle -3.18055e-015 3.18055e-014
lhumerus -16.905 30.5646 23.6322
lradius 36.5845
lwrist 11.2872
lhand -20.6105 -2.37293
lfingers 7.12502
lthumb 5.75038 27.529
rfemur -20.8042 -3.36373 10.224
rtibia 31.1077
rfoot -7.61773 -18.9689
rtoes -2.01722
lfemur 0.602783 -0.618212 -19.0152
ltibia 38.3943
lfoot 6.04173 1.80569
ltoes -14.8211
676
root 0.983309 18.24 3.46875 4.92954 7.65553 5.74969
lowerback 11.9608 -0.288251 5.90294
upperback 0.425775 1.15703 10.3631
thorax -6.42889 0.584039 7.62242
lowerneck -20.2407 0.360229 8.30675
upperneck 12.275 2.34766 -24.5895
head 7.6818 -0.738617 -9.66751
rclavicle -2.46493e-014 9.54166e-015
rhumerus -20.8496 -34.5493 -16.228
rradius 30.4842
rwrist -0.0371922
rhand -22.4861 -1.72555
rfingers 7.12502
rthumb 3.93938 -31.6689
lclavicle -2.46493e-014 9.54166e-015
lhumerus -16.8643 30.559 23.3426
lradius 36.7282
lwrist 11.3952
lhand -20.6647 -2.37173
lfingers 7.12502
lthumb 5.69806 27.5317
rfemur -20.5974 -3.05872 10.1166
rtibia 31.1758
rfoot -7.83162 -19.1443
rtoes -2.02131
lfemur 0.38237 -0.195031 -19.1427
ltibia 39.0353
lfoot 6.14532 1.84433
ltoes -14.3582
677
root 0.969038 18.2454 3.54271 4.93426 7.42122 5.88632
lowerback 11.9885 -0.227507 6.04272
upperback 0.441787 1.26174 10.4164
thorax -6.43588 0.631861 7.58384
lowerneck -20.2175 0.363344 8.26179
upperneck 12.3004 2.38706 -24.6833
head 7.69648 -0.730002 -9.69232
rclavicle -3.89618e-014 2.54444e-014
rhumerus -20.9182 -34.5943 -16.6987
rradius 30.3339
rwrist -0.092977
rhand -22.403 -1.75776
rfingers 7.12502
rthumb 4.01959 -31.6996
lclavicle -3.89618e-014 2.54444e-014
lhumerus -16.8412 30.5377 23.0706
lradius 36.8853
lwrist 11.5551
lhand -20.7267 -2.35757
lfingers 7.12502
lthumb 5.63826 27.5474
rfemur -20.4076 -2.72881 10.0535
rtibia 31.2441
rfoot -8.04319 -19.3108
rtoes -2.04737
lfemur 0.160448 0.249999 -19.2301
ltibia 39.6673
lfoot 6.12153 1.97853
ltoes -14.0591
678
root 0.955539 18.2497 3.61624 4.93443 7.17572 6.00106
lowerback 12.0111 -0.17044 6.19606
upperback 0.454335 1.36286 10.467
thorax -6.44268 0.67736 7.53488
lowerneck -20.1234 0.387106 8.28809
upperneck 12.2349 2.43237 -24.8524
head 7.67325 -0.712628 -9.75129
rclavicle -2.06736e-014 -6.04305e-014
rhumerus -20.9591 -34.7093 -17.1457
rradius 30.1528
rwrist -0.0408993
rhand -22.3065 -1.73419
rfingers 7.12502
rthumb 4.11283 -31.6742
lclavicle -2.06736e-014 -6.04305e-014
lhumerus -16.8478 30.5253 22.8031
lradius 37.0185
lwrist 11.6754
lhand -20.7562 -2.40996
lfingers 7.12502
lthumb 5.60972 27.4958
rfemur -20.2227 -2.42066 10.0116
rtibia 31.3152
rfoot -8.24811 -19.4396
rtoes -2.10641
lfemur -0.0574846 0.696901 -19.3011
ltibia 40.288
lfoot 5.97247 2.21586
ltoes -13.8476
